<svg xmlns="http://www.w3.org/2000/svg" width="11.875" height="13.2" viewBox="0 0 11.875 13.2"><defs><style>.a,.c{fill:none;}.a,.b,.c{stroke:#eef1f6;stroke-linecap:round;stroke-width:1.2px;}.a{stroke-linejoin:round;}.b{fill:#fff;}.b,.c{stroke-miterlimit:10;}</style></defs><g transform="translate(0.6 0.6)"><path class="a" d="M952.152,637l-.587,6.2a1.777,1.777,0,0,1-1.823,1.536H946.51a1.777,1.777,0,0,1-1.823-1.536L944.1,637" transform="translate(-942.788 -632.734)"/><path class="a" d="M2.69,0,2.278,4.735ZM0,0,.412,4.735Z" transform="translate(3.992 4.995)"/><line class="b" x2="10.675" transform="translate(0 1.776)"/><path class="c" d="M0,1.776H0Zm3.935-.432A1.375,1.375,0,0,1,5.337,0a1.374,1.374,0,0,1,1.4,1.344Z" transform="translate(0)"/></g></svg>