<svg xmlns="http://www.w3.org/2000/svg" width="20" height="20" viewBox="0 0 20 20"><defs><style>.a{fill:rgba(255,255,255,0.35);opacity:0;}.b{fill:none;stroke:#eef1f6;stroke-linecap:round;stroke-linejoin:round;stroke-width:1.67px;}</style></defs><rect class="a" width="20" height="20"/><g transform="translate(0.828 0.828)"><path class="b" d="M13.315,15.723A7.024,7.024,0,0,1,9.172,17.16C4.29,17.16,1.5,11.58,1.5,11.58A12.869,12.869,0,0,1,5.029,7.437M7.708,6.167A6.361,6.361,0,0,1,9.172,6c4.882,0,7.672,5.58,7.672,5.58A12.9,12.9,0,0,1,15.338,13.8m-4.687-.746A2.092,2.092,0,1,1,7.694,10.1" transform="translate(0 -2.408)"/><path class="b" d="M1.5,1.5,16.845,16.845" transform="translate(0 0)"/></g></svg>