<svg xmlns="http://www.w3.org/2000/svg" width="13" height="13" viewBox="0 0 13 13"><defs><style>.a{fill:#0c5460;}</style></defs><path class="a" d="M.406,7.313A.407.407,0,0,0,0,7.719v.813a.407.407,0,0,0,.406.406H3.25V7.313ZM12.822,2.666,10.337.178A.609.609,0,0,0,9.9,0H9.75V3.25H13V3.1A.607.607,0,0,0,12.822,2.666Zm-3.885.787V0H3.859A.608.608,0,0,0,3.25.609v6.7H6.5V5.657a.407.407,0,0,1,.7-.287L9.623,7.82a.432.432,0,0,1,0,.609l-2.43,2.448a.407.407,0,0,1-.7-.287V8.938H3.25v3.453A.608.608,0,0,0,3.859,13h8.531A.608.608,0,0,0,13,12.391V4.063H9.547A.611.611,0,0,1,8.938,3.453Z"/></svg>