<svg xmlns="http://www.w3.org/2000/svg" width="170.632" height="50.156" viewBox="0 0 170.632 50.156"><defs><style>.a{fill:#fff;font-size:29px;font-family:Avenir-Heavy, Avenir;font-weight:800;}.b{fill:#12cf97;}.c{fill:#233044;}</style></defs><g transform="translate(-4.908 -4.487)"><text class="a" transform="translate(69.54 43.642)"><tspan x="0" y="0">AiMage</tspan></text><g transform="translate(4.908 4.487)"><path class="b" d="M480.126-326.747A2.129,2.129,0,0,1,478-328.873,2.129,2.129,0,0,1,480.126-331a2.129,2.129,0,0,1,2.127,2.126A2.129,2.129,0,0,1,480.126-326.747Zm0-2.617a.491.491,0,0,0-.491.491.491.491,0,0,0,.491.491.491.491,0,0,0,.491-.491A.491.491,0,0,0,480.126-329.364Z" transform="translate(-469.657 333.618)"/><path class="b" d="M674.889-316.69a2.421,2.421,0,0,1-.926-.185,2.429,2.429,0,0,1-1.316-3.168l.442-1.07a8.151,8.151,0,0,1-1.077-1.077l-1.071.445a2.409,2.409,0,0,1-1.857,0,2.409,2.409,0,0,1-1.314-1.311,2.429,2.429,0,0,1,1.309-3.171l1.071-.445a8.138,8.138,0,0,1,0-1.522l-1.07-.442h0a2.429,2.429,0,0,1-1.317-3.168,2.428,2.428,0,0,1,3.168-1.317l1.07.442a8.154,8.154,0,0,1,1.076-1.077l-.445-1.071a2.41,2.41,0,0,1,0-1.857A2.412,2.412,0,0,1,673.939-338a2.429,2.429,0,0,1,3.171,1.309l.445,1.071a8.154,8.154,0,0,1,1.523,0l.442-1.07A2.41,2.41,0,0,1,680.831-338a2.41,2.41,0,0,1,1.857,0A2.429,2.429,0,0,1,684-334.837l-.442,1.07a8.146,8.146,0,0,1,1.077,1.077l1.071-.445a2.429,2.429,0,0,1,3.171,1.309,2.409,2.409,0,0,1,0,1.857,2.411,2.411,0,0,1-1.311,1.314l-1.071.445a8.143,8.143,0,0,1,0,1.522l1.07.442a2.429,2.429,0,0,1,1.317,3.168,2.429,2.429,0,0,1-3.168,1.316l-1.07-.442a8.152,8.152,0,0,1-1.076,1.077l.445,1.071a2.429,2.429,0,0,1-1.309,3.171,2.411,2.411,0,0,1-1.857,0,2.409,2.409,0,0,1-1.315-1.312l-.445-1.07a8.11,8.11,0,0,1-1.523,0l-.442,1.07a2.408,2.408,0,0,1-1.311,1.314A2.422,2.422,0,0,1,674.889-316.69ZM672.279-324a.818.818,0,0,1,.67.348,6.514,6.514,0,0,0,1.6,1.6.818.818,0,0,1,.287.982l-.682,1.651a.792.792,0,0,0,.429,1.032.786.786,0,0,0,.6,0,.784.784,0,0,0,.427-.428l.682-1.651a.818.818,0,0,1,.9-.493,6.532,6.532,0,0,0,2.269-.005.818.818,0,0,1,.9.491l.686,1.652a.784.784,0,0,0,.428.427.785.785,0,0,0,.6,0,.791.791,0,0,0,.426-1.033l-.686-1.652a.818.818,0,0,1,.286-.983,6.526,6.526,0,0,0,1.6-1.6.818.818,0,0,1,.982-.287l1.651.682a.791.791,0,0,0,1.032-.429.791.791,0,0,0-.429-1.031l-1.651-.682a.818.818,0,0,1-.493-.9,6.527,6.527,0,0,0-.005-2.269.818.818,0,0,1,.492-.9l1.652-.687a.784.784,0,0,0,.427-.428.786.786,0,0,0,0-.6.791.791,0,0,0-1.033-.426l-1.652.686a.818.818,0,0,1-.984-.286,6.519,6.519,0,0,0-1.6-1.6.818.818,0,0,1-.287-.982l.682-1.651a.791.791,0,0,0-.429-1.032.784.784,0,0,0-.6,0,.785.785,0,0,0-.427.428l-.682,1.651a.818.818,0,0,1-.9.494,6.525,6.525,0,0,0-2.269.005.818.818,0,0,1-.9-.491l-.686-1.652a.791.791,0,0,0-1.033-.427.785.785,0,0,0-.427.428.785.785,0,0,0,0,.6l.686,1.652a.818.818,0,0,1-.286.983,6.519,6.519,0,0,0-1.6,1.6.818.818,0,0,1-.982.287l-1.651-.682a.791.791,0,0,0-1.032.429.791.791,0,0,0,.429,1.032l1.651.682a.818.818,0,0,1,.494.9,6.522,6.522,0,0,0,0,2.269.818.818,0,0,1-.491.9l-1.652.687a.791.791,0,0,0-.427,1.033.785.785,0,0,0,.428.427.786.786,0,0,0,.6,0l1.652-.686A.819.819,0,0,1,672.279-324Z" transform="translate(-628.222 339.632)"/><path class="b" d="M481.777-290.5l.95,2.945a2.454,2.454,0,0,0,3.64,1.325l2.621-1.646a2.454,2.454,0,0,1,3.578,3L491.4-282a2.454,2.454,0,0,0,1.937,3.355l3.065.424a2.454,2.454,0,0,1,.811,4.6l-2.736,1.447a2.454,2.454,0,0,0-.672,3.815l2.075,2.3a2.454,2.454,0,0,1-2.335,4.045l-3.026-.65a2.454,2.454,0,0,0-2.967,2.49l.115,3.092a2.454,2.454,0,0,1-4.389,1.6l-1.9-2.443a2.454,2.454,0,0,0-3.874,0l-1.9,2.443a2.454,2.454,0,0,1-4.389-1.6l.115-3.092a2.454,2.454,0,0,0-2.967-2.49l-3.026.65A2.454,2.454,0,0,1,463-266.067l2.075-2.3a2.454,2.454,0,0,0-.672-3.815l-2.736-1.447a2.454,2.454,0,0,1,.811-4.6l3.065-.424A2.454,2.454,0,0,0,467.483-282l-1.165-2.867a2.454,2.454,0,0,1,3.578-3l2.621,1.646a2.454,2.454,0,0,0,3.64-1.325l.95-2.945A2.454,2.454,0,0,1,481.777-290.5Z" transform="translate(-454.904 300.605)"/><path class="b" d="M430.844-280.312A3.849,3.849,0,0,1,427-284.156,3.849,3.849,0,0,1,430.844-288a3.848,3.848,0,0,1,3.844,3.844A3.848,3.848,0,0,1,430.844-280.312Zm0-6.052a2.211,2.211,0,0,0-2.208,2.208,2.211,2.211,0,0,0,2.208,2.208,2.211,2.211,0,0,0,2.208-2.208A2.211,2.211,0,0,0,430.844-286.364Z" transform="translate(-427 297.52)"/><path class="b" d="M606.108-340.784A3.111,3.111,0,0,1,603-343.892,3.111,3.111,0,0,1,606.108-347a3.112,3.112,0,0,1,3.108,3.108A3.112,3.112,0,0,1,606.108-340.784Zm0-4.58a1.474,1.474,0,0,0-1.472,1.472,1.474,1.474,0,0,0,1.472,1.472,1.474,1.474,0,0,0,1.472-1.472A1.474,1.474,0,0,0,606.108-345.364Z" transform="translate(-574.209 347)"/><path class="b" d="M454.435-84.13A3.439,3.439,0,0,1,451-87.565,3.439,3.439,0,0,1,454.435-91a3.439,3.439,0,0,1,3.435,3.435A3.439,3.439,0,0,1,454.435-84.13Zm0-5.235a1.8,1.8,0,0,0-1.8,1.8,1.8,1.8,0,0,0,1.8,1.8,1.8,1.8,0,0,0,1.8-1.8A1.8,1.8,0,0,0,454.435-89.364Z" transform="translate(-447.074 132.32)"/><ellipse class="b" cx="1.679" cy="1.679" rx="1.679" ry="1.679" transform="translate(45.327 29.907)"/><path class="b" d="M687.454-111.093A2.457,2.457,0,0,1,685-113.546,2.457,2.457,0,0,1,687.454-116a2.456,2.456,0,0,1,2.454,2.454A2.456,2.456,0,0,1,687.454-111.093Zm0-3.272a.819.819,0,0,0-.818.818.819.819,0,0,0,.818.818.819.819,0,0,0,.818-.818A.819.819,0,0,0,687.454-114.364Z" transform="translate(-642.796 153.231)"/><ellipse class="b" cx="1.517" cy="1.517" rx="1.517" ry="1.517" transform="translate(46.319 8.82)"/><ellipse class="b" cx="0.758" cy="0.758" rx="0.758" ry="0.758" transform="translate(47.455 14.82)"/><ellipse class="b" cx="2.085" cy="2.085" rx="2.085" ry="2.085" transform="translate(50.867 10.315)"/><g transform="translate(14.702 24.385)"><g transform="translate(11.996 0)"><path class="c" d="M591.791-192.4a1.313,1.313,0,0,1-1.284-1.053l-.28-1.408a.818.818,0,0,1,.642-.962.818.818,0,0,1,.962.642l.217,1.089,4.843-.94a.818.818,0,0,1,.959.647.818.818,0,0,1-.647.959l-5.163,1A1.307,1.307,0,0,1,591.791-192.4Z" transform="translate(-590.21 195.843)"/><path class="c" d="M614.7-182.7a.818.818,0,0,1-.818-.818v-.818a.818.818,0,0,1,.818-.818.818.818,0,0,1,.818.818v.818A.818.818,0,0,1,614.7-182.7Z" transform="translate(-610.007 186.903)"/></g><g transform="translate(0 0.025)"><path class="c" d="M522.951-192.25a1.308,1.308,0,0,1-.249-.024l-5.163-1a.818.818,0,0,1-.647-.959.82.82,0,0,1,.959-.647l4.843.94.217-1.089a.817.817,0,0,1,.962-.642.818.818,0,0,1,.642.962l-.28,1.408A1.313,1.313,0,0,1,522.951-192.25Z" transform="translate(-516.877 195.689)"/><path class="c" d="M530.818-182.546a.818.818,0,0,1-.818-.818v-.818a.818.818,0,0,1,.818-.818.818.818,0,0,1,.818.818v.818A.818.818,0,0,1,530.818-182.546Z" transform="translate(-527.853 186.748)"/></g><path class="c" d="M562.248-159.16a3.439,3.439,0,0,1-3.015-1.777.818.818,0,0,1,.322-1.111.818.818,0,0,1,1.111.322,1.8,1.8,0,0,0,2.444.708.818.818,0,0,1,1.111.322.818.818,0,0,1-.322,1.111A3.414,3.414,0,0,1,562.248-159.16Z" transform="translate(-552.22 167.661)"/><path class="c" d="M556.342-156.812l1.462-1.152-1.141-.773-.527,1.785A.131.131,0,0,0,556.342-156.812Z" transform="translate(-549.709 164.807)"/></g></g></g></svg>