<svg xmlns="http://www.w3.org/2000/svg" width="20" height="20" viewBox="0 0 20 20"><defs><style>.a{fill:#fff;opacity:0;}.b{fill:#4481ff;}</style></defs><g transform="translate(-165 0.5)"><rect class="a" width="20" height="20" transform="translate(165 -0.5)"/><path class="b" d="M81.532,228.8V218.7a2.155,2.155,0,0,0-1.161-3.954,2.119,2.119,0,0,0-1.714.88H68.343a2.118,2.118,0,0,0-1.714-.88,2.155,2.155,0,0,0-1.161,3.954V228.8a2.155,2.155,0,0,0,1.161,3.954,2.118,2.118,0,0,0,1.714-.88H78.657a2.119,2.119,0,0,0,1.714.88,2.155,2.155,0,0,0,1.161-3.954Zm-13.742,0V218.7a2.159,2.159,0,0,0,.68-.725H78.53a2.159,2.159,0,0,0,.68.725V228.8a2.159,2.159,0,0,0-.68.725H68.47A2.159,2.159,0,0,0,67.79,228.8Zm12.581-12.481a.587.587,0,1,1-.581.587A.585.585,0,0,1,80.371,216.315Zm-13.742,0a.587.587,0,1,1-.581.587A.585.585,0,0,1,66.629,216.315Zm0,14.87a.587.587,0,1,1,.581-.587A.585.585,0,0,1,66.629,231.185Zm13.742,0a.587.587,0,1,1,.581-.587A.585.585,0,0,1,80.371,231.185Z" transform="translate(101.5 -214.25)"/></g></svg>