<svg xmlns="http://www.w3.org/2000/svg" width="20" height="20" viewBox="0 0 20 20"><defs><style>.a{fill:#fff;opacity:0;}.b{fill:#eef1f6;}</style></defs><g transform="translate(1 1)"><rect class="a" width="20" height="20" transform="translate(-1 -1)"/><path class="b" d="M47.022,51.464H48.3a3.031,3.031,0,0,0,5.773,0h8.9a1.054,1.054,0,0,0,0-2.107h-8.9a3.031,3.031,0,0,0-5.773,0H47.022a1.054,1.054,0,0,0,0,2.107Zm4.166-2.107a1.054,1.054,0,1,1-1.022,1.054A1.039,1.039,0,0,1,51.188,49.357Z" transform="translate(-46 -47.25)"/><path class="b" d="M62.978,122.357h-8.9a3.031,3.031,0,0,0-5.773,0H47.022a1.054,1.054,0,0,0,0,2.107H48.3a3.031,3.031,0,0,0,5.773,0h8.9a1.054,1.054,0,0,0,0-2.107Zm-11.79,2.107a1.054,1.054,0,1,1,1.022-1.054A1.039,1.039,0,0,1,51.188,124.464Z" transform="translate(-46 -108.571)"/><path class="b" d="M62.978,86.567H61.92a3.029,3.029,0,0,0-5.745,0H47.022a1.054,1.054,0,0,0,0,2.107h9.125a3.033,3.033,0,0,0,5.8,0h1.029a1.054,1.054,0,0,0,0-2.107Zm-3.93,2.148a1.054,1.054,0,1,1,1.022-1.054A1.039,1.039,0,0,1,59.048,88.714Z" transform="translate(-46 -78.541)"/></g></svg>