<svg xmlns="http://www.w3.org/2000/svg" width="20" height="20" viewBox="0 0 20 20"><defs><style>.a{fill:#fff;opacity:0;}.b{fill:#eef1f6;stroke:#eef1f6;stroke-width:0.5px;}</style></defs><g transform="translate(-56 0.5)"><rect class="a" width="20" height="20" transform="translate(56 -0.5)"/><g transform="translate(57 0.5)"><path class="b" d="M269.281,225.952a1.123,1.123,0,0,0-.332-.8h0l-2.925-2.921a1.133,1.133,0,0,0-1.6,0l-10.937,10.922a1.13,1.13,0,0,0,0,1.6l2.925,2.921a1.133,1.133,0,0,0,1.6,0l10.937-10.922a1.123,1.123,0,0,0,.332-.8ZM268.2,226l-.668.667-.688-.687a.529.529,0,0,0-.747.748l.687.686-.72.719-1.357-1.356a.529.529,0,1,0-.747.748l1.356,1.355-.719.719-.688-.687a.529.529,0,0,0-.747.748l.687.686-.719.719-1.358-1.356a.529.529,0,1,0-.747.748l1.356,1.355-.72.718-.688-.687a.529.529,0,1,0-.747.748l.687.686-.72.719-1.357-1.356a.528.528,0,1,0-.747.748l1.356,1.355-.72.718-.688-.687a.529.529,0,0,0-.747.748l.687.686-.716.715a.074.074,0,0,1-.1,0L254.235,234a.073.073,0,0,1,0-.1l10.937-10.922a.074.074,0,0,1,.1,0L268.2,225.9a.073.073,0,0,1,0,.1Z" transform="translate(-253.157 -221.902)"/><path class="b" d="M306.29,265.026h-1.905a.517.517,0,0,0,0,1.034h.655l-7.807,7.8V273.2a.517.517,0,0,0-1.034,0v1.9a.517.517,0,0,0,.517.517h1.905a.517.517,0,1,0,0-1.034h-.655l7.807-7.8v.655a.517.517,0,0,0,1.034,0v-1.9A.517.517,0,0,0,306.29,265.026Z" transform="translate(-288.807 -257.621)"/></g></g></svg>