<svg xmlns="http://www.w3.org/2000/svg" width="19.261" height="15.409" viewBox="0 0 19.261 15.409"><defs><style>.a{fill:#fff;}</style></defs><path class="a" d="M18.779,6.26H16.853V4.334a.483.483,0,0,0-.482-.482h-.963a.483.483,0,0,0-.482.482V6.26H13a.483.483,0,0,0-.482.482V7.7A.483.483,0,0,0,13,8.186h1.926v1.926a.483.483,0,0,0,.482.482h.963a.483.483,0,0,0,.482-.482V8.186h1.926a.483.483,0,0,0,.482-.482V6.741A.483.483,0,0,0,18.779,6.26ZM6.741,7.7A3.852,3.852,0,1,0,2.889,3.852,3.852,3.852,0,0,0,6.741,7.7Zm2.7.963h-.5a5.239,5.239,0,0,1-4.388,0h-.5A4.046,4.046,0,0,0,0,12.712v1.252a1.445,1.445,0,0,0,1.445,1.445H12.038a1.445,1.445,0,0,0,1.445-1.445V12.712A4.046,4.046,0,0,0,9.438,8.667Z"/></svg>