<svg xmlns="http://www.w3.org/2000/svg" width="23" height="23" viewBox="0 0 23 23"><defs><style>.a{fill:#fff;opacity:0;}.b{fill:#dee2e6;}</style></defs><g transform="translate(-19 -169)"><rect class="a" width="23" height="23" transform="translate(19 169)"/><path class="b" d="M14228.2,16727a2.255,2.255,0,0,1-2.249-2.25v-13.5a2.251,2.251,0,0,1,2.249-2.25h2.6a3.6,3.6,0,0,1,7.1,0h2.9a2.25,2.25,0,0,1,2.248,2.25v13.5a2.254,2.254,0,0,1-2.248,2.25Zm-.749-15.748v13.5a.751.751,0,0,0,.749.75h12.6a.752.752,0,0,0,.75-.75v-13.5a.751.751,0,0,0-.75-.75h-3.607a.749.749,0,0,1-.545-.234.758.758,0,0,1-.205-.557l0-.061v-.051a2.1,2.1,0,1,0-4.2,0v.051l0,.061a.751.751,0,0,1-.749.791h-3.308A.75.75,0,0,0,14227.454,16711.248Zm2.661,11.563a.928.928,0,1,1,.93-.93.927.927,0,0,1-.93.93Zm3.038-.027a.9.9,0,0,1,0-1.8h5.7a.9.9,0,1,1,0,1.8Zm-3.038-3.855a.928.928,0,1,1,.93-.932.929.929,0,0,1-.93.932Zm3.038-.029a.9.9,0,0,1,0-1.8h5.7a.9.9,0,1,1,0,1.8Zm-3.038-3.932a.928.928,0,1,1,.93-.926.924.924,0,0,1-.93.926Zm3.038-.025a.9.9,0,0,1,0-1.8h5.7a.9.9,0,1,1,0,1.8Zm.152-5.346a1.05,1.05,0,1,1,1.051,1.049A1.048,1.048,0,0,1,14233.306,16709.6Z" transform="translate(-14203.955 -16535.996)"/></g></svg>