<svg xmlns="http://www.w3.org/2000/svg" width="23" height="23" viewBox="0 0 23 23"><defs><style>.a{fill:#fff;opacity:0;}.b{fill:#4481ff;}</style></defs><g transform="translate(-19 -169)"><rect class="a" width="23" height="23" transform="translate(19 169)"/><path class="b" d="M16464.2,16663.078h-11.182a2.019,2.019,0,0,1-2.021-2.02v-12.094a2.023,2.023,0,0,1,2.021-2.02h1.045v-1.158a2.061,2.061,0,0,1,2.057-2.062h7.637a2.066,2.066,0,0,1,2.063,2.063v3.559h.4a2.016,2.016,0,0,1,2.016,2.016v.777a1.546,1.546,0,0,1,.652.516,1.692,1.692,0,0,1,.205,1.539l-2.3,7.1a2.709,2.709,0,0,1-2.449,1.781Zm-9.137-8.885-2.3,7.1a.369.369,0,0,0,0,.307.36.36,0,0,0,.293.1h11.279a1.329,1.329,0,0,0,1.141-.828l2.3-7.105a.27.27,0,0,0-.3-.41h-11.279A1.335,1.335,0,0,0,16455.064,16654.193Zm-2.689-5.229v9.074l1.379-4.27a2.309,2.309,0,0,1,.311-.605v-4.844h-1.045A.645.645,0,0,0,16452.375,16648.965Zm3.061-3.178v6.336a2.436,2.436,0,0,1,.77-.135h8.238v-6.2a.683.683,0,0,0-.686-.686h-7.637A.686.686,0,0,0,16455.436,16645.787Zm10.385,6.2h1.041v-.627a.645.645,0,0,0-.645-.645h-.4Zm-7.754-1.525a.689.689,0,0,1,0-1.377h3.922a.688.688,0,0,1,0,1.377Zm0-2.4a.686.686,0,0,1,0-1.371h3.922a.686.686,0,0,1,0,1.371Z" transform="translate(-16428.998 -16472.725)"/></g></svg>