<svg xmlns="http://www.w3.org/2000/svg" width="18.999" height="19" viewBox="0 0 18.999 19"><defs><style>.a{fill:#eef1f6;}</style></defs><path class="a" d="M14384.41,16664.465l-3.765-3.764a8.542,8.542,0,1,1,1-1.006l3.761,3.762a.713.713,0,0,1,0,1.008.708.708,0,0,1-1,0Zm-16.368-10.27a7.1,7.1,0,0,0,12.087,5.055c.012-.01.02-.027.031-.039s.028-.02.04-.031a7.1,7.1,0,1,0-12.158-4.984Zm11.467,0a4.369,4.369,0,0,0-4.364-4.365.711.711,0,1,1,0-1.422,5.792,5.792,0,0,1,5.786,5.787.711.711,0,1,1-1.422,0Z" transform="translate(-14366.621 -16645.672)"/></svg>