<svg xmlns="http://www.w3.org/2000/svg" width="23" height="23" viewBox="0 0 23 23"><defs><style>.a{fill:#fff;opacity:0;}.b{fill:#eef1f6;}</style></defs><g transform="translate(-19 -169)"><rect class="a" width="23" height="23" transform="translate(19 169)"/><path class="b" d="M308.864,236.047h0l-1.117-1.117,1.148-1.989a1.508,1.508,0,0,0-.38-1.909l0,0-1.331-1.04c.007-.12.01-.235.01-.347s0-.228-.01-.347l1.335-1.043a1.516,1.516,0,0,0,.368-1.931l-1.689-2.921a1.5,1.5,0,0,0-1.868-.671l-1.574.632q-.292-.188-.594-.345l-.238-1.655a1.5,1.5,0,0,0-1.488-1.3h-3.4a1.489,1.489,0,0,0-1.485,1.283l-.24,1.677c-.2.1-.394.218-.591.345l-1.589-.638a1.511,1.511,0,0,0-1.844.654l-1.7,2.933a1.509,1.509,0,0,0,.366,1.944l1.331,1.041c-.007.121-.01.235-.01.346s0,.225.01.346l-1.336,1.045a1.515,1.515,0,0,0-.366,1.93l1.689,2.922a1.506,1.506,0,0,0,1.868.67l1.574-.632q.291.187.593.345l.238,1.655a1.5,1.5,0,0,0,1.488,1.3h3.4a1.488,1.488,0,0,0,1.486-1.283l.24-1.677q.151-.079.3-.167l2.676,2.676a1.929,1.929,0,0,0,2.728-2.729Zm-6.646-.9a.71.71,0,0,0-.41.546l-.3,2.062a.079.079,0,0,1-.079.052h-3.4a.08.08,0,0,1-.081-.073l-.293-2.041a.709.709,0,0,0-.411-.546,5.975,5.975,0,0,1-1.032-.6.71.71,0,0,0-.679-.083l-1.905.765a.085.085,0,0,1-.123-.042l-1.688-2.921a.1.1,0,0,1,.006-.12l1.633-1.277a.709.709,0,0,0,.269-.632,5.162,5.162,0,0,1,0-1.193.71.71,0,0,0-.268-.632l-1.628-1.273a.087.087,0,0,1-.019-.113l1.707-2.954a.109.109,0,0,1,.087-.029l1.93.775a.708.708,0,0,0,.676-.08,6.068,6.068,0,0,1,1.034-.6.709.709,0,0,0,.411-.546l.3-2.062a.077.077,0,0,1,.078-.052h3.4a.08.08,0,0,1,.082.072l.293,2.042a.71.71,0,0,0,.412.547,5.919,5.919,0,0,1,1.032.6.709.709,0,0,0,.679.083l1.906-.766a.087.087,0,0,1,.122.042l1.688,2.92a.1.1,0,0,1-.007.121l-1.633,1.276a.709.709,0,0,0-.268.636,5.51,5.51,0,0,1,.034.593,5.687,5.687,0,0,1-.034.6.709.709,0,0,0,.268.633l1.628,1.273a.085.085,0,0,1,.024.1l-.95,1.645-2.762-2.763a4.312,4.312,0,0,0,.239-1.42,4.377,4.377,0,0,0-5.921-4.106.709.709,0,0,0-.253,1.166l2.382,2.382a.815.815,0,0,1,0,1.153.835.835,0,0,1-1.153,0l-2.382-2.382a.709.709,0,0,0-1.166.253,4.377,4.377,0,0,0,4.106,5.921,4.31,4.31,0,0,0,1.419-.239l1.194,1.194C302.346,235.082,302.283,235.118,302.218,235.147Zm5.643,2.624a.523.523,0,0,1-.722,0l-5.253-5.253a.709.709,0,0,0-.809-.138,2.93,2.93,0,0,1-1.279.295,2.971,2.971,0,0,1-2.961-2.769l1.4,1.4a2.234,2.234,0,1,0,3.16-3.159l-1.4-1.4a2.972,2.972,0,0,1,2.77,2.962,2.932,2.932,0,0,1-.3,1.28.71.71,0,0,0,.138.809l5.253,5.253A.511.511,0,0,1,307.861,237.771Z" transform="translate(-269.404 -49.198)"/></g></svg>