<svg xmlns="http://www.w3.org/2000/svg" width="35.004" height="34.998" viewBox="0 0 35.004 34.998"><defs><style>.a{fill:#5b7bad;}</style></defs><path class="a" d="M17992.5,16622a17.5,17.5,0,1,1,12.375-5.125A17.385,17.385,0,0,1,17992.5,16622Zm-4.072-16.086a4.059,4.059,0,0,0-4.055,4.055v.506a1.523,1.523,0,0,0,1.523,1.52h13.172a1.52,1.52,0,0,0,1.518-1.52v-.506a4.059,4.059,0,0,0-4.055-4.055h-1.744a5.516,5.516,0,0,1-4.615,0Zm4.055-10.129a4.559,4.559,0,1,0,4.561,4.557A4.562,4.562,0,0,0,17992.482,16595.783Z" transform="translate(-17974.998 -16587)"/></svg>